<svg version="1" xmlns="http://www.w3.org/2000/svg" width="933.333" height="933.333" viewBox="0 0 700.000000 700.000000"><path d="M131.3 2c-6.8 4.1-6.3-10.7-6.3 185.5 0 196.1-.5 181.4 6.3 185.5 3.1 2 6.7 2 218.7 2s215.6 0 218.7-2c6.8-4.1 6.3 10.7 6.3-185.7 0-176.6 0-177.8-2-181.1C568.9-.5 585.7 0 349.3 0 138 0 134.4 0 131.3 2zm403.9 25.4c5.2 2.5 10.1 7.3 12.4 12.1 1.8 3.9 1.9 7.6 1.9 123 0 115.7-.1 119.1-1.9 122.9-2.5 5-7.2 9.7-12.2 12.2-3.8 1.9-8.1 1.9-184 2.1-200.8.3-185.7.9-193.2-6.7-2.1-2-4.7-5.5-5.8-7.6-1.8-3.8-1.9-7.3-1.9-122.9 0-116.3 0-119.1 2-123 2.9-5.9 10.2-12.4 14.7-12.9.3-.1 1-.4 1.4-.8.4-.5 82.2-.7 181.8-.5 174.4.2 181.2.3 184.8 2.1zM168.8 327c3.9 2.4 6.6 8.1 5.8 12.3-2 10.2-14.7 14.1-21 6.6-3-3.6-3.9-6.4-3.2-10.3.8-4.2 3.3-7.6 6.9-9.1 4.5-2 7.7-1.8 11.5.5zm50 0c6.1 3.7 7.7 12.2 3.4 17.9-6.3 8.6-19.8 5.3-21.8-5.4-.9-4.8 2.1-10.5 6.6-12.7 4.6-2.3 7.7-2.3 11.8.2zm324.9 0c8.2 5 8.2 16 0 21-3.1 1.9-5.6 2-81 2-85.9 0-81.7.3-85.7-6.3-3.6-5.9-1.8-13 4.3-16.7 3.1-1.9 5.6-2 81.2-2 75.6 0 78.1.1 81.2 2z"/><path d="M175 162.5V275h350V50H175v112.5zm194.8-72.4c1.2.7 2.8 2.7 3.7 4.4.9 1.6 10.3 24.8 20.9 51.4l19.3 48.5 7.1-14c5.6-10.9 7.8-14.3 10.4-15.9 3.1-1.8 5.2-2 31.8-2 26.8.1 28.7.2 31.2 2 7.9 5.8 7 17-1.7 21.8-1.3.7-10 1.1-24.5 1.2h-22.5l-11.7 23c-12.5 24.6-13.9 26.4-21.1 26.7-3.6.1-8.7-2.4-10.5-5.2-1.1-1.8-4.8-11.1-27.2-67-6.7-16.8-12.3-30.6-12.4-30.7-.2-.2-9 21.6-19.7 48.3-12.5 31.4-20.2 49.4-21.8 51-2.8 2.8-7.5 4.3-11.4 3.5-5.2-1.1-8-5.3-15.6-23.2-4.1-9.6-8.2-19.2-9.2-21.4-.9-2.2-4.1-9.5-7-16.3-2.8-6.8-5.5-12-5.9-11.5-.4.4-3.5 5-6.9 10-3.4 5.1-7.3 10.1-8.8 11-2.2 1.5-5.6 1.7-23.7 1.9-18.8.1-21.5-.1-25.3-1.8-8.9-4.1-9.5-16.3-1-21.3 2.6-1.6 5.6-1.9 19.2-2.1 8.8-.1 16.5-.2 17.1-.3.6-.1 6.2-7.7 12.4-17.1 13.1-19.6 16.4-22.1 24.2-19.1 4.6 1.8 6.7 5.3 16.3 27.7 5.4 12.6 10.8 25.1 12 27.9 1.3 2.7 2.6 6 3 7.2.3 1.3 1 2.3 1.4 2.3.5 0 2.5-4.4 4.6-9.8 2.1-5.3 4.6-11.5 5.5-13.7 1-2.2 3.8-9.2 6.3-15.5 2.5-6.3 5.1-12.9 5.8-14.5.7-1.7 1.3-3.5 1.5-4 .3-1.2 10-25.2 11.3-28 .5-1.1 1.7-4.1 2.7-6.7 3.6-10.3 12-13.8 20.2-8.7zM91.5 115.5c-12.1 3.4-26.6 12.7-35.4 22.8-4 4.7-11.1 15.1-11.1 16.3 0 .3-.6 2-1.4 3.7-10.7 23.4-6.5 54.9 10.2 75.7 11.1 13.8 27.2 23.7 43.5 26.7l2.7.5v-73.6c0-83.2 1-74.7-8.5-72.1zM600 187.5c0 62.2.2 73.5 1.4 73.5 3.2 0 15.5-4.4 21.6-7.7 23.3-12.6 37.7-35.6 39.4-63.4.4-5.5-1.8-20.4-3.9-26.4-6.1-17.7-18.9-32.8-35.6-41.8-6-3.3-18.3-7.7-21.5-7.7-1.2 0-1.4 11.3-1.4 73.5zM300 425v25h100v-50H300v25zM168.7 476.8c-1.5.9-3.5 3.3-4.5 5.2-1.6 3.3-1.7 10.9-1.7 110.5v107l72.4.3 72.4.2-9.9-7.3c-24.2-17.8-46.5-43.5-58.1-66.8-14.2-28.7-17.7-58.6-9.7-82.7 11.5-34.5 53.6-52.4 90.1-38.2 6.4 2.4 18.5 9 20.3 10.9.3.3 2.7 2.6 5.3 5.1l4.7 4.4 4.8-4.6c9.3-9.1 25.1-17.2 38.2-19.7 9.6-1.8 26.4-.7 35.5 2.3 30.7 10.3 47 35 46 69.6-1.1 37.5-19.5 72.9-55.2 106-6.8 6.4-9.5 8.5-21.2 17l-5.5 4h144.9V484.5l-2.3-3.7c-1.6-2.6-3.4-4-6-4.8-2.5-.6-62.9-1-180.7-1-165.4.1-177.2.2-179.8 1.8zM40.8 488.6c-7.5 1.6-11.6 3.3-17.4 7-10.6 6.7-17.9 16.5-21.5 29.1C.1 531 0 535.9 0 615.7V700h75V487.4l-14.5.1c-7.9 0-16.8.5-19.7 1.1zM625 593.7V700h75v-83.8c0-78.4-.1-84.3-1.9-90.9-3.6-13.8-12.5-25.1-25-31.7-9.4-4.9-14.3-5.8-32.3-6l-15.8-.2v106.3zM100 537.5V550h37.5v-25H100v12.5z"/><path d="M282.3 526.4c-11.9 3-21.5 9.9-26.7 19.2-4 7.2-5.4 14.4-5.1 26.8.4 18.8 7.9 40 20.7 59 11.9 17.6 34.3 37.5 64.5 57.3l14.4 9.5 15.7-10.5c34.8-23 56.5-43.8 68.4-65.3 15.8-28.6 19.9-57.5 10.6-76-9.8-19.8-38.5-27.1-61.2-15.7-6.6 3.3-15.1 10.5-18.4 15.7-1.5 2.3-2.9 4.3-3.3 4.6-.3.3-.8 1.3-1.2 2.2-.7 2-7.7 5.8-10.7 5.8-2.3 0-7.7-2.5-9.5-4.4-.5-.6-2.8-3.7-4.9-6.9-6.6-9.8-16.8-17.3-28.1-20.7-6-1.8-19.3-2.1-25.2-.6zM562.5 537.5V550H600v-25h-37.6l.1 12.5z"/></svg>